/* XPM */
static char *result[] = {
/* columns rows colors chars-per-pixel */
"64 64 256 2 ",
"   c #170A09",
".  c #1C0D0D",
"X  c #170E14",
"o  c #230E0E",
"O  c #24110E",
"+  c #28100F",
"@  c #220F10",
"#  c #241111",
"$  c #2C1514",
"%  c #2D1815",
"&  c #2E1719",
"*  c #301616",
"=  c #321917",
"-  c #311719",
";  c #341B19",
":  c #18240F",
">  c #0C0F23",
",  c #17192A",
"<  c #171E34",
"1  c #231D28",
"2  c #1C2337",
"3  c #35292A",
"4  c #302C2E",
"5  c #262837",
"6  c #362D34",
"7  c #3A3337",
"8  c #6B1C18",
"9  c #50372F",
"0  c #463B39",
"q  c #743533",
"w  c #364D29",
"e  c #484339",
"r  c #4C423C",
"t  c #52433C",
"y  c #594839",
"u  c #505531",
"i  c #6F4F2D",
"p  c #754E2C",
"a  c #79552B",
"s  c #684B34",
"d  c #68573B",
"f  c #795A35",
"g  c #527030",
"h  c #776537",
"j  c #6D7032",
"k  c #1E2643",
"l  c #252B42",
"z  c #2C3148",
"x  c #363949",
"c  c #383D54",
"v  c #413C41",
"b  c #3B4250",
"n  c #494746",
"m  c #554A44",
"M  c #4F514E",
"N  c #5A5548",
"B  c #494D56",
"V  c #4C5358",
"C  c #565957",
"Z  c #655A46",
"A  c #71574C",
"S  c #577B45",
"D  c #5D625B",
"F  c #6A654A",
"G  c #786947",
"H  c #657649",
"J  c #7B734C",
"K  c #666559",
"L  c #756B57",
"P  c #797758",
"I  c #4D5364",
"U  c #565B62",
"Y  c #5D6164",
"T  c #666965",
"R  c #6D7269",
"E  c #747567",
"W  c #7B7A63",
"Q  c #7C7D6C",
"!  c #787A73",
"~  c #9C201B",
"^  c #8C3932",
"/  c #D60F0A",
"(  c #92631E",
")  c #86552A",
"_  c #935A2A",
"`  c #8D5535",
"'  c #B25236",
"]  c #88692A",
"[  c #95682B",
"{  c #8A752B",
"}  c #94762C",
"|  c #876936",
" . c #956934",
".. c #897638",
"X. c #977538",
"o. c #A4692E",
"O. c #A7752D",
"+. c #A57634",
"@. c #B57C33",
"#. c #C27835",
"$. c #92504B",
"%. c #AE5552",
"&. c #8E6A4F",
"*. c #946749",
"=. c #857549",
"-. c #947948",
";. c #897A57",
":. c #837D5D",
">. c #967956",
",. c #A77948",
"<. c #A46856",
"1. c #AD7151",
"2. c #847C64",
"3. c #91786A",
"4. c #AD7666",
"5. c #CD7B58",
"6. c #608D39",
"7. c #768E34",
"8. c #708F4B",
"9. c #73A14C",
"0. c #7D8269",
"q. c #7F8271",
"w. c #8B8C2D",
"e. c #88962A",
"r. c #9A8638",
"t. c #899836",
"y. c #999938",
"u. c #A28A3B",
"i. c #B88335",
"p. c #AF9A34",
"a. c #A89738",
"s. c #98A32C",
"d. c #ADA733",
"f. c #C6A139",
"g. c #99864A",
"h. c #8A9944",
"j. c #8F924A",
"k. c #89845B",
"l. c #8C845C",
"z. c #9B8454",
"x. c #988656",
"c. c #94855B",
"v. c #958B5C",
"b. c #9A8C5D",
"n. c #9C935C",
"m. c #A68A47",
"M. c #B48B48",
"N. c #A69548",
"B. c #B9974E",
"V. c #A28956",
"C. c #B88659",
"Z. c #A69659",
"A. c #96A64B",
"S. c #A7A648",
"D. c #B7A648",
"F. c #B0AC54",
"G. c #8A8667",
"H. c #84846D",
"J. c #938C63",
"K. c #978B66",
"L. c #9C9363",
"P. c #989367",
"I. c #858674",
"U. c #8B8C73",
"Y. c #8F8E75",
"T. c #989676",
"R. c #A88768",
"E. c #B78C65",
"W. c #A39A65",
"Q. c #A59867",
"!. c #BB9469",
"~. c #AF8871",
"^. c #A59978",
"/. c #BA9A73",
"(. c #93AF71",
"). c #ABA169",
"_. c #B2A96F",
"`. c #B8A479",
"'. c #CF8B57",
"]. c #E69D5D",
"[. c #C8B252",
"{. c #C6996D",
"}. c #C8A967",
"|. c #C6A577",
" X c #D4B572",
".X c #E8AF6E",
"XX c #E9B878",
"oX c #D7C44D",
"OX c #E9CF53",
"+X c #CEC872",
"@X c #E9C479",
"#X c #F7CF70",
"$X c #F4C879",
"%X c #717A89",
"&X c #90908A",
"*X c #A59C8A",
"=X c #A39C91",
"-X c #9BA394",
";X c #B7AA8A",
":X c #B3AD8D",
">X c #AAA695",
",X c #8F97A6",
"<X c #9CA7AD",
"1X c #ADAFA6",
"2X c #B8BAB5",
"3X c #C19E80",
"4X c #C7A985",
"5X c #C9B589",
"6X c #D3B18B",
"7X c #C8B695",
"8X c #E7BB85",
"9X c #E8BB8F",
"0X c #C6BEA6",
"qX c #CEBCAE",
"wX c #B8C5AB",
"eX c #D7C687",
"rX c #C7C594",
"tX c #D3CD92",
"yX c #D8C698",
"uX c #EBC685",
"iX c #F4C985",
"pX c #F5D28B",
"aX c #E5D098",
"sX c #F6D794",
"dX c #C8C4A9",
"fX c #D8C8A7",
"gX c #D3D4AA",
"hX c #C8C9B6",
"jX c #D8CCB5",
"kX c #D9D6B8",
"lX c #E3CAA9",
"zX c #E6D7A9",
"xX c #EACFB2",
"cX c #E5D8BA",
"vX c #EBE1A9",
"bX c #EEE5B0",
"nX c #E8E3B8",
"mX c #BEC5C4",
"MX c #C7CCC6",
"NX c #CDD1CF",
"BX c #D9D8C6",
"VX c #D9DBD5",
"CX c #E6DBC5",
"ZX c #EADECD",
"AX c #DBE2D8",
"SX c #EAE5C7",
"DX c #F2EAC7",
"FX c #EAE7D7",
"GX c #F3ECD8",
"HX c #F6F2D9",
"JX c #DBE2E2",
"KX c #E9EBE6",
"LX c #F1EDE3",
"PX c #EDF0EA",
"IX c #F5F3E8",
"UX c #F6F6F4",
/* pixels */
"; ; ; ; ; ; ; ; ; ; ; ; - - * * * * $ * $ $ $ + $ + + + + + O O + O % O + + + % + + + + + + + + + + @ + # & # & & # & % * * * - ",
"; ; ; ; = = ; - ; - - - & & $ $ $ % $ + + + # + + + O O O + O O O O O O O O O O o o + o @ + o o o o @ @ # # # # $ $ # % & * * * ",
"; = % + o # # # # # # # @ @ o o . . . . O o . . . . . .   .   . O O . . .   . . . . .   . o   .   X . . . . . . X @ @ # & % # # ",
"; % O ^.-.X.*.| | &.|  .f d y f h s d 0 n d d i a f | [ [ [ [ _ ( ] h } m.o.O.O.O.O.O.O.O.@.M.M.+.B.}.|.tX5XB.V.+.@.@.@.i.% + . ",
"= % O -.[ o.[ ) p p ) ) p s 0 0 y s y e 0 t t y s L d m y m Z A M d d J | [  .X.X.] ] ] } X.X.g.>.V._.tX+XeX}.B.M.@.@.@.M.* + . ",
"% + #  .} _ ) p s a a a p s t 0 r s e 0 n 0 r 0 r K E R 2.R K Z N j d d | X.| | ..{ +.O.} X.} ).).)._.+XuXeXeX|.eXM.@.i.M.* # . ",
"# + . X.O.s s s s s i i y e t r 0 t t t t r 0 n n m K K R Z Z Z Z d d d G J ..h | h X.u.i.r.+.x.k.T._.rXyXaXtXeXzX/.X.i.i.& # . ",
"# + .  .o.s p p s i p i s y t r r m t t t m m n K N N d d d Z d d d a h ] ] h d F h | ..r.X.u.n.G.P.:XrXrXgXtXrXzX}.i.i.i.& # @ ",
"$ @ @ +._ s s s t s ) a p s v t m m y y y m N N F F G G s r m n B n n n | X.| h F G G ..r.g.m.r.j.l.).`._._.7XrXzXzX Xi.@.; + o ",
"$ @ X +._ p m m r t s ) f s s s y d N d F N Z N F G K K N d K T K U I &X2XBXBXhX<XH.k.j.N.g.N.N.Z.Z.S.j.j.B.). XtXzXyX}.i.; @ o ",
"$ @ . o._ s v v e r t y p ` ` p s A N Z F N M N N Z M n y d G ! =XVXVXPXLXSXkXnXSXBX^.n.F.B.F.F.B.a.D.r.r.D.d.D.F.Q.Q.}.i.& @ @ ",
"- @ . o._ ) s 0 0 9 0 y 9 s p A 2.Z Z F F F C n n M n M C 2.BXBXPXHXGXGXGXDXDXSXSXFXIXhXT.n.z.N.N.r.r.} ..r.r.N.N.x.=.,.#.- @ X ",
"$ $ @ _ _ i y 0 r t t y s i 3.;X:.N Z ;.J  .&.n B M n C K MXLXGXGXDXSXHXSXnXSXSXSXDXPXHXSXgXrX:X`.^.:X^.^.P.n.x.b.V.c.+.i.& # . ",
"@ @ X ' _ a y 9 t 9 r t m m *XrX^.:.P G.:.,.,.Y C B B C 2XIXDXFXSXFXBXkXkXkXkXnXnXSXSXSXHXUXIXIXUXUXUXUXIXKXrXT.;.n.x.>.M.& # . ",
"# + .  ._ ) ) i 0 0 e e m 0.;X:XH.W L.`.3.;.[ E x c l K kXFXSXSXBX2XkXkXgXgXgXgXnXSXnXbXHXIXIXIXUXIXUXPXIXGXbXgX^.>.V.K.R.& # X ",
"& # o ` ) ) ) p e 7 7 n n P ^.H.P.`.5XQ.c.z. .3.T Y T 0XZXSXHXSXBXBXhXkXkXgXvXgXkXnXnXvXnXSXFXPXHXHXDXSXDXnXDXbXvX=XF L J & # . ",
"& + o ) ) ) a a F n n e m P L.z.}.}.}.b.c.M.o.>.W Y.*XBXrXnXSXcXkXcXgXhXtXaXyXkXnXnXnXvXzXSXGXHXHXDXSXgXrXFXnXbXvX:XD D F & # . ",
"* $ @ f ) ) =.X.| y m m N k.v.-.-.T.BXBXfXi._ >.T.-XqX2XFXrXyXdXfXjXyXrX7X7XcXzXkXcXnXcXDXGXKXGXDXbXaXA.F.rXHXnXbX&XV B M % # . ",
"= * o a p p -.[ X.d N m Z G.x.Q.0XHXFXkX$Xf.@.,.kXBX1XqXlXlXaX7XaXyXyX6X7X`.7XdXrXeXaXCXFXFXGXGXDX+X+XF.F.S.BXDXbX&Xb b B = # . ",
"; * # f i | | h | F L M F K.:XSXIXUXKX+XoX[.O.C.>X*X*X2X7X;X6X9X9X6X/.`.`./.|.5X5X6X8XxXcXxXCXDXvXtXF.F.[.y.hXDXDXSXx b V % $ . ",
"; % # | f | X.,.=.>X2XmXMXBXJXUXUXUXJXoXOXD.[ M.>X-X3.$.$.3.~.~./. X@X$X@XXX5X5X5X5X5X6XaXaXlXnXaX+X[.S.S.y.hXbXvXnX&Xz b & # . ",
"; % # =.G | X.z.>XNXNXmXMXJXPXUXUXUXCXoX#Xp. .M.=X3.A $.%.m.].#XpX#X#X#X#X#X#X#X#X|.*X;XyXyXeXlXrXt.t.y.A.j.hXsX).*X>Xz b & + X ",
"= * + P =.h >.b.=XVXmXNXJXKXPXNXLXGXSXOXOX{ [ C.%XA $.<.<.C.].#X#XOX#X#X.X#XXXXX#X#XXX`.*X>X:X).7.A.7.t.7.j.BXgX1X:X^.I x * O . ",
"= $ + J G J R.K.2.MXJXJXKXNXmXMXIXBXdXOXOXD.} m.3.q $.%.%.'.].[.D.S.A.[.y.].1.1.1.N.d.#X_.0.8.7.s.A.t.y.y.2.cXnXgX:X/.%Xb % # . ",
"* $ O P J G K.G.>.:XKXJXJXNXmXVXhX<X7XOXoXD.} @.q 9 $.4.4.' ' u.d.d.S.7.S.*.%.%.4.1. XN.w.e.w.0.(.y.e.s.0.0.tX@X[.j.;X<Xx - # X ",
"= $ O J G L ^.T.>.;.VXPXJXKXmXNX,X<XaXoXoXa.X.' 8 q %.4.%.' o.X.w.e.e.u j.-.u.1.' %.}.w.e.D.}.H t.s.7.7.H F.oXOXN.X.2X<Xv & @ . ",
"% $ O 8.J J J.R.-.L I.PXUXUXPXNX2X2XyX[.[.r.p 8 &.^ %.%.4.%.5.1.r.h.9.w H j N./.V.M.i.w.y.B.7.g t.A.6.s.[.oXoXd...R.MX1Xc % # . ",
"% $ . P ;.:.:.-.;.A L 2.VXPXIXFXPXFXjX1XS.} ^  XsX0Xq $.%.%.%.` s 7.8.u g g t.w.y.y.%.*.#.u.{ S.S.S.oXoXoXd.a.-.U.1XMX,Xl % # . ",
"% $ . G.k.J ;.*.:.Z N N U.BXKXKXUXKXBXhX:X8XpXsXsXsX|.1.E.'.B.3 g 7.7.j s ) ] j u $.$.^  .j p.[.oXoXOXoXa.{ | R ,XmXkXY z % # X ",
"% $ . 0.=.J L =.:.m b F 0.:XFXLXPXLXhXkXwXuXpXpXsXsXpXpXiXiX}.h.e.s.S.h.8 8 ~ [ -.<.%.` ,.f.f.d.oXd.p.w...| R %X<XBXFXz k & : . ",
"% O O G.h =.G Z L b M F k.T.>XdXCXCXjXCXVX0X.XiXsXpXiXiXiX8XF.y.s.s.A.h.8.J ^ | A >.;.a.d.p.p.p.s.e.{ j j Y %X<XmXgX>X5 l % O . ",
"% O O 0.G =.F A M n C J H.U.Q *XZXCXkXCXCXSXdX$XuXiXpX$XuX8X_.a.e.A.j.h.(.8.8 s u 4 7 R L S.w.w.e.e.7.g w D %XMXwXhX&Xz 2 % . . ",
"% % O G.=.G G G M V M L K.U.T &XFXIXGXnXcXxXCX.X.X$X$X$X8XiXXXS.s.F.A.7.6.8.N w 7 3 8 ~ ~ ~ ^ ( w.j j w j 7.8.hXkXZX=Xl < % @ . ",
"% % O H.=.G =.Z N F F G.H.2.K hXLXxXxXcXCXCXCXxX]..XiX$XXXXX8X XF.S.t.9.(.W.Z.L.&.9 ~ ~ / / / | 7.{ 7.s.s.t.Z.>XBXFXN k < & @ . ",
"; ; # G.-.J J Z H P L P W P E KXUXGXxXlXlXlXZXZXDX9X.XXX8XXXXXpXoXs.F.)._.}.XXeX!.^ ~ ~ ~ ~ ] 7.F.j j 7.t.A.A.gXFXqXx l l % . . ",
"3 % $ K.Z.=.P F H L F E 2.0.q.VXLXIXLXCXfX6X4XxXGXGXxXXXiXXX8XbX[.F.F.pXuX@XXX.X4.q 0 w q _ X.F.A.t.s.t.-X9.:XFX2Xv k l k O O . ",
"; % : P.Z.;.P F y d Z K Q H.q.NXFXLXUXUXGXCX9X6X6XZXFXCX9XXXXXsX+X}.XXpX$X$XXXXXR.9 w j ` B._.A.F.t.6.6.g &XAX2X2 < k 2 k % X . ",
"; % O P.n.g.k.K D N h D E H.I.<XNXJXFXLXLXZXCXqXlXlXUXGXGXxX8XsXuXiXpXiXiXuXXX8XR.0 u a a -.e.9.9.6.6.6.hXPXAXb < < < 2 2 % O . ",
"; % O k.n.x.k.W F n g.G E 0.I.&X%X=XjXjXCXCXCXCXjXlXLXUXLXxXxXsXsXsXiXiXiXXXXX.Xz.# : w 8.h.6.g 8.9.wXNXPXFX&X< < < k 2 2 $ O . ",
"; % O v.k.x.k.W P b A ] K Q I.Y.3.&X0XBXqX7XjXxXCXlXCXUXUXZXGXDXsX$XiXiX$XXXXX|.H u u h.t.g 6.6.6.-XAXHXHXhX< < > < 2 k 2 % O . ",
"; = O L.P.v.k.P H b N ] G E C H.! &XqXjXVX7X;XjXCXxXlXZXUXUXLXHXnXuXXX.X].].]. Xt S g t.9.9.7.9.hXIXFXGXqXz < , k l 5 5 k % # . ",
"; = O L.P.v.G.H M m ..[ A E K C 3.<XGXCXjXqX4X3X3X7X{.{.BXUXUXPXHXDXxX'.'.'.'.'.U.qXgXtXrXwXSXPXHXCXnX>X< , , 2 2 2 2 5 5 % # . ",
"= $ + L.P.L.P.P M N.N.} ) M n Q ! =XCXVXKXVX7X{.4X|./.>.$.4.NXFXFXZXSXjXfXfXcXxXSXDXkXBXCXZXFXBXgX7XK , < < 2 5 5 2 5 5 5 $ # . ",
"= $ O n.n.L.J.P F D.g.} a 4 7 I.I.Y.jXjXxXCXjX].6X3X3X/.~.~.R.4.4.>.~.7XfXlXxXzXxX7X7X4X{.;X~.R.D 2 , < < 2 < 2 2 2 2 5 6 % $ . ",
"= + O Z.L.).v.P J [.N.{ a 4 7 q.I.I.=XlX6X6X9X3X|.|././.4X4X4X~.>.3.>.>.<.<.<.*.<.&.*.*.*.&.&.m < 5 > , , , , , , 2 5 6 7 % # . ",
"= % O W.n.).v.P =.D.F.X.j 5 b G.U.I.3.;X.X6X9X6X/.`.|.{.!.{.;X4X/.R.4.4.<.<.1.*.1.1.1.*.&.&.9 2 , < , 1 2 1 1 5 3 5 7 v 0 % # . ",
"* $ . ).).W.P.0.=.D.a.{ a 4 z I.Y.U.3.&X6X.X8X3XR.!.E.!.{.{.{.E.E.E.E.E.E.!.'.C.+.'.*.9 5 , , 1 5 < , 1 3 6 6 6 M 6 v v M % # . ",
"* $ . F.).n.P.k.=.[.D.{ { 7 7 E Y.H.3.3.*X{.6X3X|.C.4.!.~.!./.!.E.E.E.E.!.C.C.C.1.*.9 > , , , , 1 1 4 6 6 0 z z v z z x D % $ . ",
"* $ + Z.W.n.L.l.J y.[.{ } Z 6 K U.J.G.J.H.*X*XE 4X9X9X9X6X5.E.E.E.E.{.4.5.E.#.*.$.3 , > > 1 3 1 6 0 v 0 v n x I z z z B C - # . ",
"* + . ).).L.P.P.:...p.r.[ ] 7 6 0.U.Y.G.G.H.3.<.*.1.'.'.{.'.1.'.R.1.*.` ` ` s 1 > > > X 1 3 6 0 v C B B U B z z I c c C D & # @ ",
"& $ # ).).L.k.J.G.=.r.N.{ } h 3 4 R U.K.G.G.Y.>X1X0X:X;X7X4X;XL 4 > > > > > > X > 1 1 1 6 0 n M V Y I B I b b I I v I C D & @ . ",
"& $ @ Q.).L.k.k.k.G.;.u.D.} } { i 6 M F G.G.U.dXjXkXjXhX0XhX1Xl > > > > > > 1 1 1 3 3 9 0 v C V U T U Y T V U B B I T C D & @ . ",
"& $ O W.).P.L.v.l.G.G.=.N.p.p.r.{ { i w 7 L G.b.Q.7XhXhXhXhX-X2 , > , , 4 6 7 7 m C L K K R T T T T U T T V B U U U D D D & # . ",
"& $ + ).).W.L.W.n.c.c.c.j.g.p.p.p.} w.( h 6 r :.v.:.G.0XBXhX&X< , 4 t C K D T E R L H.0.I.q.q.E T U U U U U Y Y R R T R Y % @ . ",
"& & @ Q.W.Q.P.L.L.n.v.v.c.c.-.g.{ r...f 3 4 N J.J.b.c.K.7XdX&X6 0 t K P W E Q L W P Q W 0.Q I.! T T T T R R T T T C B V C & @ X ",
"% # @ Q.L.L.n.n.n.n.b.b.b.L.v.l.k.P P k.J ;.K.L.Q.b.K.b.n._.*Xm y L U.2.W W 2.:.:.G.P H.W H.W W ! R R R R R ! ! R T Y V V % # . ",
"% $ @ W.L.L.n.n.v.n.v.v.x.c.b.b.x.c.c.>.K.K.z.x.x.L.J.L.Q.K.L.P.K.P.H.0.k.P P 2.G.:.G.k.W 2.P Q 0.0.0.0.q.0.0.q.E Q R D D % X . ",
"& $ @ ).L.n.v.v.v.v.b.x.x.b.c.c.>.z.b.z.z.>.k.;.c.b.V.b.b.K.Q.Q.).P.K.K.k.:.G.k.P 2.:.l.P W 0.U.0.q.q.0.0.0.q.q.H.U.U.q.R % # . ",
"$ # @ G.).P.v.J.v.v.l.c.c.v.c.z.z.c.x.x.>.-.x.z.z.z.V.z.V.Q.n.W.Q.Q.P.L.P.J.l.J.G.J.W P K E H.0.G.G.U.Y.q.q.q.Y.Y.T.Y.Y.q.% # . ",
"& & $ P.L.W.L.n.L.L.c.v.c.c.l.>.c.c.-.-.x.z.x.z.g.g.g.g.>.g.V.V.V.Q.Q.Q.L.b.b.b.c.c.G.P P k.P.G.U.J.U.0.U.q.q.T.Y.Y.U.I.U.% # . ",
"& & & L.P.P.P.L.J.J.G.G.J.J.J.K.c.z.>.V.>.m.V.V.V.m.-.-.g.g.g.n.g.V.V.V.V.L.K.b.z.x.Q.v.L.L.Q.Q.P.P.T.T.^.T.T.T.Y.T.*XY.*X& # . ",
"& & ; ; - & % & * & * & $ # $ $ $ + + + + + o O o o + + O O O O o o o o # + + o o o o o o o @ o O O O O # % % # O # $ $ # O # . ",
"# # # # $ # # # # # o o o o o o o . o o o . o   .   . . . . . o . .   o o     o o     .       .   X @ @ . . O X O . . # # @ . . ",
"O . O X . # X . @ . . X . . .   .                                                                     .   X     . . . . . . . : "
};
