/* XPM */
static char *result[] = {
/* columns rows colors chars-per-pixel */
"64 64 18 1 ",
"  c gray16",
". c #323232",
"X c gray23",
"o c gray48",
"O c gray56",
"+ c #656565",
"@ c gray34",
"# c #292626",
"$ c #232323",
"% c #3D3C3C",
"& c #464242",
"* c #353434",
"= c #C5C5C5",
"- c #AFAFAF",
"; c #9D9D9D",
": c #8E8E8E",
"> c black",
", c #797979",
/* pixels */
"              ..  .....XXX..X.......    ..                      ",
" ............XX...X..XXXXXXXXXXXX..XX...XXX.................... ",
"..ooOOOOOOOOoOOOOOOOOOOOOOOOOoooOOOOOOOOOOOOOOOOoooooOOOOOOooo. ",
"..oOOOoOOoooOOOOOOOOOOOOOOOOOOooooOOOOOOOOOOOoooOOooOOOOOooOoo. ",
" .ooooOOoooOOoooOOooOOOOOOooooOOoooooOOOOoooooOOooOooooOOOoo+oX ",
" Xo+oOOooOoooooooOOoooOOOoooOOoOOooOOoOOOOooOOOOOoooooOOoo++ooX.",
"XX+++oooOOOOoo++o+ooOOooOOOooooo++ooOOoo++OOoOOooooooOooooo+++..",
".X+oo+++ooOo+oo++oooo++oooOOo++oo+++oo+++ooOOoooooooo++ooooo++X.",
".Xoo++@@++++o++ooo++++@@++o+++oo+oo++@@+ooOoo+o++ooooo+++o++o+X.",
"XXo++++@@@+++ooo++o+@@@++ooo+ooooo++@@+++o+++ooo++oo++o+++++++X.",
".Xoooo+++@@@@@++o++ooo++@@++oooo++oo+++@++++oo++++@+o++@@+++@+X.",
".X+oo+++@@@@@+@@++@+o++++@@+++ooo+++++@@@@+++++@+@@@++@@++@@+@X.",
" Xo++@@@++@@+++@@@+++@@@@++@@@+++++@@@+++@@@+@@+++++@@++@@@@@@X ",
" .++@@+++++@@@+++@@+@@@@++@@@+@+++@@@+++@@++@@+++++@@++++@@@@@. ",
" ...XXX.X.XXXXXXXXXXXXXXXXXXXXXXXXX..X........    .... ....  .. ",
"  .     ....XX..XX.XX.....XXX..X....  .   ..  ..        ....    ",
"#  #$$$#$$#  ####$#### #   #$$$$##$$#  # #    ###    ##$$#####$$",
"$$$$$$###$$$##$$$###$$##$$$$$$$$$$$$$$$$$$$$####$$###$##$$$#####",
"%%&&&&&&%%&&%&&%%%*****&&%&&%%&&&&&&%%&&%%%%%*%%****%%**%%***%*%",
"%*%%%%%&&%%&&%**%*%%****%%%&&%%%&%&&&%%%%%%%%%*%%%*%%****%%***%*",
"*%========================--======-----=======----------------%*",
"*%======--=======--======------=====--=====---==--------------%*",
"**===-=--===----==---==-------=----------===--------;;--------%%",
"*%===--==---------=---==-----------;;---==---------;;-------;-%%",
"%%==-----------------------------;;;-----------;;;;----;;;-;;;%*",
"%%===------------------;;---------;;;;---;;-----;;;;-----;;--;**",
"*%=-=---------------;;;-----;;------;;;;;---------;;;;;;--;-;;%*",
"*%=---------------;;;;----;;------;;-;;--;-----;;;;;;;--;;;;;;%%",
"*%=-----------;;---;--;;;;;-;;;--;;---------;;;;;;;;;;;;;;;;;;%*",
"*%----------;;;------;--;;---;;;;-----;;;;;;;--;;;;;;;;;;;;;;:%*",
"%*------;;---;---;;----;;;;;--;;;;;;;--;;;----;;;;;;;;;;;;;::;**",
"%%----;;;---------;;-----;;;;;;;;;;;;;;;;;;;----;;;;;;;;;;;;::**",
"*%-;;--;;;;;----;;;;;;--;;;;;;;;;;;;;;;;;;;;;;;--;;;;;;;;:::::%*",
"*%;;-;;;;;;;;;---;;;--;;;;;;;;;;;;;;;;;;;;;;;--;;;;;;;;::;::::%%",
"%%%%%++++++++++++++++++++++%;;;;;;;;%++++++++++++++++++++++%%%%%",
"%%%%%++++++++++++++++++++++%;;;;;;;;%++++++++++++++++++++++%%%%%",
"%%++::::::::>>>>>>>>;:::::::;;;;;;;;::::::::>>>>>>>>;:::::::++%%",
"%%++-------->>>>>>>>----;;;;;;;;;;;;;;;;;;;;>>>>>>>>;;;;;;;;++%%",
"%%++-------->>>>>>>>------;-;;;;;;;;;;;;;;;;>>>>>>>>-;;;;;;;,+&%",
"%%+,-------->>>>>>>$=------;;;;;;;;;;;;;;;;;>>>>>>>$=;;;;;;;,+%&",
"%*+,-------->>>>>>$+=---------;;;;;;;;;;;;;;>>>>>>$+=;;;;;;;,,%&",
"%*+:-------->>>>$$++=--------;;;;;;;;;;;;;;;>>>>$$++=;;;;;;;:,&&",
"*%,:-------->>$$++++=------;;;;;;---;;;;;;;;>>$$++++=;;;;;;;:,&&",
"XX,:--------$$++++++=----;;-;;;;---;;;;;;;;;$$++++++=;;;;;;;,,&&",
"XX,,--------========------;;--;;;;---;;;;;;-========;;;;;;;;:,&%",
"XX+,-------------------------;;;;;;;;;;;;;;;;;;;;;;;;;;;;;;;:,%%",
"XX+,;---------------------------;;;;;;;;;;;;;;;;;;;;;;;;;;;;:,%X",
"XX+,;--------------------------;--;;;;;;;;;;;;;;;;;;;;;;;;;;:,XX",
"X +:;--------------------;--;;;--;;;;;;;;;;;;;;;;;;;;;;;;;;;,,  ",
"  +:;------------------;;--;;;;;;--;;;;;;;;;;;;;;;;;;;;;;;;;,,X ",
" X,:--------------------;;;;,++++++,;;;;;;;;;;;;;;;;;;;;;;;;,,XX",
" X,:---------------------;;;,++++++,;;;;;;;;;;;;;;;;;;;;;;;;:,XX",
"X ,:;------------------------;;---;;;;;;;;;;;;;;;;;;;;;;;;;;:,X ",
"XX,:;-----------------------;;---;--;;;;;;;;;;;;;;;;;;;;;;;;:,X ",
" X+,--------------------------;-;;;;--;;;;;;;;;;;;;;;;-;;;;;,,X ",
" X+,;-;;---------------------;;;;;;-;--;;;;;;;;;;;;;;---;;;-:,X ",
" X,:;;-------------------;-------;;;;;;;;;;;;;;;;;;--;;;---;:,XX",
" X+:;---------------------;;------;;;;;;;;;;;;;;;;--;-;;;---:,XX",
" X+,;;;-----------------;;;-;;--;;;----;;;;;;;;;;;;;;;----;;:,X ",
" X+,;;;;------;;;;;;--;;;;-----;;;-;--;--;;;;;;;;;;;----;;;;,,XX",
"XX++,::,,,::::,,,,,,,,,::::,,,,,,,,:,,,::::::,,,:::::::,,,,,,+XX",
"XX++++,,,,,,,,,,,,,,,,,,,,,,,,,,,,,,,,,,,,,,,,,,,,,,,,,,,,++++XX",
"XXXXXXXXXXXXXXXXXXXXXXXXXXXXXXXXXXXXXXXXXXXXXXXXXXXXXXXXXXXXXXXX",
"XXXXXXXX          XX    XX  XXXXXXXXXXXXXXXXXXXX      XX    XXXX"
};
